<?xml version="1.0" encoding="UTF-8"?>
<svg width="276px" height="276px" viewBox="0 0 276 276" version="1.1" xmlns="http://www.w3.org/2000/svg" xmlns:xlink="http://www.w3.org/1999/xlink">
    <title>capture/circle green framework@2x</title>
    <g id="Flow-APK" stroke="none" stroke-width="1" fill="none" fill-rule="evenodd">
        <g id="capture/circle-green-framework" fill="#3F9613">
            <path d="M7.36263621,150.11713 C13.606142,216.621025 69.5874039,268.664184 137.723997,268.664184 C165.516981,268.664184 191.287522,260.005076 212.48498,245.237499 L217.033933,249.78509 C194.636146,265.665675 167.270146,275 137.723997,275 C66.0860769,275 7.26468037,220.12594 0.999922614,150.117935 L7.36263621,150.11713 Z M150.117935,0.999922614 C220.12594,7.26468037 275,66.0860769 275,137.723997 C275,166.778855 265.973515,193.725464 250.57183,215.912539 L246.015107,211.356277 C260.308586,190.37555 268.664184,165.025551 268.664184,137.723997 C268.664184,69.5874039 216.621025,13.606142 150.11713,7.36263621 L150.117935,0.999922614 Z M79.5702044,13.3383073 L79.5714208,20.3732099 C53.9534452,33.0924843 33.0924843,53.9534452 20.3732099,79.5714208 L13.3383073,79.5702044 C26.9603115,50.4840626 50.4840626,26.9603115 79.5702044,13.3383073 Z" id="Combined-Shape"></path>
        </g>
    </g>
</svg>